<?xml version="1.0" standalone="no"?>
<!DOCTYPE svg PUBLIC "-//W3C//DTD SVG 20010904//EN"
 "http://www.w3.org/TR/2001/REC-SVG-20010904/DTD/svg10.dtd">
<svg version="1.0" xmlns="http://www.w3.org/2000/svg"
 width="512.000000pt" height="512.000000pt" viewBox="0 0 512.000000 512.000000"
 preserveAspectRatio="xMidYMid meet">
<metadata>
Created by potrace 1.14, written by Peter Selinger 2001-2017
</metadata>
<g transform="translate(0.000000,512.000000) scale(0.100000,-0.100000)"
fill="#000000" stroke="none">
<path d="M2536 4984 c-14 -14 -16 -63 -14 -431 3 -383 4 -417 21 -427 12 -8
22 -8 35 0 16 10 17 44 20 427 2 368 0 417 -14 431 -8 9 -19 16 -24 16 -5 0
-16 -7 -24 -16z"/>
<path d="M1271 4646 c-7 -8 -10 -23 -7 -33 17 -47 413 -718 426 -721 9 -1 24
4 35 12 20 15 19 16 -13 78 -18 35 -112 200 -210 368 -181 312 -199 335 -231
296z"/>
<path d="M3793 4648 c-16 -20 -380 -651 -400 -693 -17 -36 -17 -37 2 -51 11
-8 26 -13 35 -12 8 2 53 68 99 148 322 558 335 582 324 599 -13 21 -47 26 -60
9z"/>
<path d="M2416 3790 c-537 -61 -980 -422 -1147 -933 -46 -141 -62 -252 -62
-427 -1 -174 19 -290 74 -447 93 -262 274 -499 502 -654 l57 -40 0 -224 c0
-221 0 -225 -21 -225 -31 0 -59 -18 -59 -38 0 -26 20 -42 52 -42 l28 0 0 -80
c0 -78 -1 -80 -24 -80 -22 0 -56 -22 -56 -36 0 -23 25 -44 50 -44 26 0 30 -4
30 -27 0 -21 22 -49 93 -120 l93 -93 75 0 c68 0 78 -3 99 -25 38 -40 115 -85
183 -107 87 -28 267 -28 354 0 68 22 145 67 183 107 21 22 31 25 99 25 l75 0
93 93 93 93 0 67 c0 64 1 67 24 67 24 0 56 23 56 40 0 17 -32 40 -56 40 -23 0
-24 2 -24 80 0 77 1 80 23 80 13 0 32 6 42 14 17 12 18 18 7 40 -9 20 -19 26
-42 26 l-30 0 0 185 0 184 58 40 c227 155 408 392 501 654 55 157 75 273 74
447 0 175 -16 286 -62 427 -136 416 -458 738 -874 874 -166 54 -392 78 -561
59z m404 -95 c504 -111 888 -498 997 -1005 27 -126 24 -401 -5 -527 -71 -309
-262 -595 -509 -763 -43 -29 -84 -60 -90 -68 -9 -11 -13 -54 -13 -134 l0 -118
-640 0 -640 0 0 118 c0 80 -4 123 -12 134 -7 8 -48 39 -91 68 -247 168 -438
454 -509 763 -29 126 -32 401 -5 527 83 388 329 712 673 887 144 73 221 98
434 137 55 10 337 -3 410 -19z m380 -2734 c0 -36 -2 -39 -32 -45 -33 -6 -1127
-66 -1205 -66 l-43 0 0 75 0 75 640 0 640 0 0 -39z m0 -205 l0 -73 -41 -7
c-41 -7 -1117 -66 -1196 -66 l-43 0 0 80 0 80 58 1 c31 0 282 13 557 28 275
15 537 28 583 29 l82 2 0 -74z m0 -208 c0 -39 -6 -48 -72 -115 l-72 -73 -500
0 -500 0 -68 67 c-86 86 -88 103 -10 104 31 0 282 13 557 28 275 15 537 28
583 29 l82 2 0 -42z m-760 -303 c45 -30 48 -35 27 -35 -36 0 -118 28 -147 51
l-25 19 46 0 c37 0 58 -7 99 -35z"/>
<path d="M2335 3305 c-52 -18 -111 -82 -125 -134 -6 -23 -15 -39 -21 -35 -5 3
-37 5 -70 5 -72 0 -138 -30 -181 -81 -38 -46 -62 -129 -54 -185 7 -41 6 -43
-23 -48 -34 -7 -96 -58 -116 -96 -37 -72 -26 -159 29 -218 l32 -35 -24 -48
c-28 -58 -24 -109 14 -165 22 -33 23 -40 13 -83 -39 -175 93 -355 278 -378 40
-5 54 -11 59 -26 10 -32 64 -88 108 -111 30 -15 59 -21 106 -21 72 0 114 17
168 67 l32 31 33 -31 c53 -50 95 -67 167 -67 47 0 76 6 106 21 44 23 98 79
108 111 5 15 19 21 59 26 69 9 143 44 191 91 73 72 111 196 87 289 -10 41 -9
48 13 81 38 56 43 107 14 165 l-24 48 32 35 c55 59 66 146 29 218 -20 38 -82
89 -116 96 -29 5 -30 7 -23 48 8 56 -16 139 -54 185 -43 51 -109 81 -181 81
-33 0 -65 -2 -70 -5 -6 -4 -15 12 -21 34 -37 139 -208 192 -315 99 l-35 -31
-35 30 c-34 30 -90 52 -130 52 -11 -1 -38 -7 -60 -15z m133 -91 c44 -29 52
-69 52 -259 0 -196 -6 -222 -62 -251 -17 -9 -51 -19 -76 -23 -51 -7 -74 -30
-56 -58 20 -32 84 -28 177 12 16 7 17 -6 17 -187 0 -216 -1 -220 -65 -242 -44
-16 -61 -35 -52 -60 10 -24 35 -31 79 -19 l39 11 -3 -157 c-3 -146 -5 -158
-27 -190 -82 -115 -266 -75 -286 62 -7 42 -3 56 25 112 27 53 31 67 20 80 -19
22 -43 18 -73 -13 -26 -28 -57 -99 -57 -133 0 -39 -110 -5 -167 52 -90 89 -97
224 -15 319 51 60 104 84 182 84 65 0 82 -6 172 -62 22 -13 32 -14 45 -6 45
28 10 77 -87 123 -114 54 -263 27 -354 -64 -41 -41 -56 -37 -56 16 0 37 29 69
69 78 71 14 66 68 -7 86 -23 5 -54 22 -69 38 -23 22 -28 36 -28 77 0 40 5 54
28 78 16 17 44 33 62 36 27 5 38 2 59 -19 73 -73 206 -87 206 -23 0 19 -17 29
-87 47 -109 30 -149 171 -70 255 67 71 170 69 229 -4 36 -46 124 -93 164 -88
60 7 57 67 -4 79 -104 21 -146 134 -74 201 43 41 99 45 150 12z m334 -12 c71
-67 30 -180 -74 -201 -61 -12 -64 -72 -4 -79 39 -5 131 43 158 81 28 40 34 45
81 57 51 15 112 -3 153 -44 81 -81 41 -227 -69 -257 -70 -18 -87 -28 -87 -47
0 -65 137 -49 204 23 21 22 30 25 59 20 19 -4 48 -20 64 -37 23 -24 28 -38 28
-78 0 -41 -5 -55 -28 -77 -15 -16 -46 -33 -69 -38 -73 -18 -78 -72 -7 -86 56
-12 87 -74 60 -118 -8 -12 -15 -9 -38 15 -95 102 -238 130 -363 72 -97 -44
-132 -94 -87 -122 13 -8 23 -7 45 6 115 72 178 83 260 48 101 -44 161 -145
149 -250 -7 -61 -27 -99 -74 -145 -32 -31 -110 -65 -148 -65 -7 0 -17 25 -24
56 -21 90 -87 150 -121 109 -11 -13 -7 -27 20 -80 28 -56 32 -70 25 -112 -20
-137 -204 -177 -286 -62 -22 32 -24 44 -27 190 l-3 157 39 -11 c44 -12 69 -5
79 19 9 25 -8 44 -52 60 -64 22 -65 26 -65 242 0 181 1 194 18 187 92 -40 156
-44 176 -12 18 28 -5 51 -56 58 -61 9 -105 33 -123 69 -23 45 -22 372 3 420
35 71 127 87 184 32z"/>
<path d="M350 3725 c-6 -8 -10 -22 -8 -32 2 -12 104 -76 283 -181 428 -249
440 -255 465 -242 53 29 30 46 -345 262 -198 115 -365 208 -371 208 -6 0 -17
-7 -24 -15z"/>
<path d="M4375 3533 c-283 -163 -361 -213 -363 -230 -5 -34 30 -48 70 -27 117
60 691 400 695 412 7 18 -9 46 -28 50 -8 1 -176 -91 -374 -205z"/>
<path d="M16 2464 c-9 -8 -16 -19 -16 -24 0 -5 7 -16 16 -24 14 -14 63 -16
431 -14 383 3 417 4 427 21 8 12 8 22 0 35 -10 16 -44 17 -427 20 -368 2 -417
0 -431 -14z"/>
<path d="M4252 2468 c-7 -7 -12 -19 -12 -28 0 -39 11 -40 436 -40 362 0 415 2
428 16 9 8 16 19 16 24 0 5 -7 16 -16 24 -13 14 -66 16 -428 16 -307 0 -415
-3 -424 -12z"/>
<path d="M875 1512 c-489 -281 -530 -307 -533 -329 -3 -21 29 -49 46 -40 186
102 715 414 719 425 7 18 -9 46 -28 50 -8 1 -100 -46 -204 -106z"/>
<path d="M4020 1605 c-25 -30 -4 -50 140 -134 581 -335 578 -333 600 -321 48
26 23 50 -155 154 -383 222 -549 316 -560 316 -7 0 -18 -7 -25 -15z"/>
</g>
</svg>
