<?xml version="1.0" standalone="no"?>
<!DOCTYPE svg PUBLIC "-//W3C//DTD SVG 20010904//EN"
 "http://www.w3.org/TR/2001/REC-SVG-20010904/DTD/svg10.dtd">
<svg version="1.0" xmlns="http://www.w3.org/2000/svg"
 width="250.000000pt" height="250.000000pt" viewBox="0 0 250.000000 250.000000"
 preserveAspectRatio="xMidYMid meet">
<metadata>
Created by potrace 1.14, written by Peter Selinger 2001-2017
</metadata>
<g transform="translate(0.000000,250.000000) scale(0.100000,-0.100000)"
fill="#000000" stroke="none">
<path d="M1136 2443 c-2 -2 -17 -6 -32 -8 -48 -8 -58 -10 -71 -18 -7 -5 -13
-6 -13 -3 0 10 -112 -36 -177 -73 -93 -53 -192 -136 -252 -211 -51 -64 -146
-240 -157 -290 -3 -14 -7 -36 -10 -49 -3 -14 -7 -28 -10 -33 -13 -21 -19 -169
-10 -263 17 -190 97 -355 255 -529 38 -42 84 -101 100 -129 35 -62 74 -194 60
-203 -6 -4 -6 -11 2 -20 6 -8 9 -17 6 -20 -3 -3 -1 -18 4 -33 19 -53 31 -55
402 -55 305 -1 346 1 379 16 43 21 50 30 54 72 19 172 44 224 179 367 80 84
174 209 158 209 -4 0 -3 4 4 8 13 8 53 96 53 118 0 8 5 14 12 14 6 0 9 3 6 6
-3 3 0 29 8 57 8 29 17 72 21 97 8 54 11 201 4 215 -3 6 -7 19 -8 30 -2 17
-14 78 -18 95 -21 90 -102 248 -134 265 -81 41 -165 -69 -104 -137 10 -11 17
-22 15 -24 -1 -2 5 -18 14 -36 62 -119 80 -285 50 -444 -8 -40 -68 -184 -77
-184 -5 0 -9 -5 -9 -11 0 -19 -56 -93 -126 -166 -38 -39 -78 -82 -89 -95 -35
-42 -100 -176 -110 -228 -9 -46 -19 -70 -28 -71 -63 -3 -146 -1 -155 5 -7 4
-12 4 -12 -1 0 -10 -52 -9 -68 1 -7 4 -12 4 -12 -1 0 -6 -109 -8 -226 -4 -21
1 -25 9 -41 96 -6 33 -90 198 -120 234 -15 19 -46 53 -68 76 -85 87 -155 186
-155 220 0 8 -5 15 -12 15 -6 0 -9 3 -5 6 3 3 1 18 -5 33 -5 14 -12 35 -14 46
-2 11 -9 42 -15 69 -18 74 -6 225 25 321 73 228 256 401 489 462 64 17 223 22
287 9 44 -8 132 -36 145 -46 14 -10 68 -24 80 -21 6 2 15 4 21 5 21 3 42 26
52 55 16 46 -10 85 -76 116 -32 15 -64 29 -72 30 -8 2 -15 4 -15 5 0 2 -17 6
-97 24 -60 13 -271 20 -282 9z"/>
<path d="M1010 2132 c-22 -22 -40 -48 -40 -59 0 -10 22 -41 48 -69 44 -46 82
-107 89 -144 2 -8 5 -39 8 -68 4 -42 2 -54 -11 -59 -23 -9 -31 6 -37 68 -2 30
-15 75 -27 99 -28 55 -105 131 -128 127 -44 -8 -104 -58 -117 -98 -12 -37 17
-54 93 -55 52 -1 68 -4 70 -17 4 -20 -8 -27 -56 -31 -43 -3 -117 18 -144 41
-15 13 -19 13 -39 0 -39 -28 -59 -69 -59 -123 0 -28 3 -54 6 -57 4 -4 19 2 34
13 35 25 91 37 165 34 100 -3 148 -17 143 -43 -3 -10 -12 -15 -28 -13 -14 1
-65 4 -115 7 -75 3 -98 0 -137 -17 -26 -12 -51 -31 -57 -45 -15 -32 -14 -95 2
-116 11 -15 18 -14 82 17 39 19 84 36 101 39 42 6 103 -16 131 -49 20 -24 22
-30 9 -42 -12 -13 -19 -11 -51 14 -24 18 -48 28 -69 27 -30 -1 -176 -56 -203
-76 -15 -11 -17 -75 -4 -110 14 -36 59 -77 92 -84 20 -4 29 -11 29 -25 0 -48
46 -102 97 -113 28 -6 34 -3 47 22 22 43 65 83 105 101 47 21 68 22 82 5 18
-21 -5 -39 -57 -42 -15 -1 -67 -54 -83 -85 -23 -41 -1 -95 51 -129 23 -15 49
-27 58 -27 45 0 117 61 128 108 9 40 7 979 -2 1015 -15 56 -55 89 -115 95 -49
4 -53 3 -91 -36z m90 -490 c42 -63 63 -115 68 -168 3 -42 1 -52 -13 -58 -23
-8 -28 -3 -31 37 -1 17 -3 33 -4 35 -3 3 -7 20 -9 35 0 8 -18 41 -39 73 -21
33 -37 65 -34 72 7 23 37 11 62 -26z m-215 -224 c24 -38 61 -67 94 -73 13 -2
26 -7 29 -9 2 -3 20 1 39 9 30 13 35 12 40 0 10 -29 -6 -43 -55 -50 -67 -9
-126 17 -175 77 -40 49 -43 58 -26 75 16 16 30 8 54 -29z"/>
<path d="M1363 2148 c-59 -42 -59 -40 -58 -591 l0 -503 25 -36 c23 -35 75 -68
106 -68 29 0 96 51 110 86 12 29 12 39 0 67 -15 38 -69 87 -95 87 -9 0 -26 6
-36 14 -16 12 -17 16 -6 30 7 8 20 14 30 13 35 -6 92 -41 117 -71 14 -17 31
-38 39 -48 7 -9 11 -19 8 -22 -12 -12 39 -5 66 8 33 17 56 49 65 91 6 23 18
35 54 52 57 27 74 61 70 134 -3 46 -6 53 -28 59 -14 4 -50 19 -80 34 -75 37
-132 38 -169 2 -26 -25 -61 -28 -61 -6 0 26 54 69 97 78 50 11 80 4 169 -41
27 -13 55 -22 62 -20 8 3 12 27 12 69 0 63 0 64 -40 90 -48 32 -143 42 -234
25 -47 -9 -61 -8 -68 1 -18 31 43 49 166 52 57 1 79 -4 123 -26 l53 -27 0 57
c0 77 -6 93 -41 118 l-29 21 -52 -26 c-57 -28 -135 -34 -162 -12 -27 23 -3 39
50 33 32 -3 58 1 83 14 33 16 36 21 27 39 -20 37 -41 61 -69 80 -49 32 -71 28
-119 -23 -58 -61 -90 -129 -91 -192 0 -35 -5 -51 -16 -55 -28 -11 -39 20 -29
78 14 79 51 151 104 201 l48 46 -17 35 c-34 71 -123 96 -184 53z m124 -476 c8
-5 0 -25 -27 -68 -41 -64 -64 -132 -54 -157 3 -10 -2 -20 -15 -26 -16 -9 -22
-8 -29 6 -7 16 -9 73 -2 81 1 1 3 6 4 11 0 5 4 13 9 17 4 4 7 16 7 26 0 10 5
18 10 18 6 0 10 5 10 10 0 17 52 90 64 90 6 0 16 -4 23 -8z m217 -249 c-7 -27
-64 -87 -104 -110 -45 -25 -100 -29 -139 -8 -33 17 -37 25 -21 41 8 8 23 8 49
1 20 -6 50 -7 65 -3 27 7 116 89 116 108 0 5 8 4 19 -2 12 -6 17 -17 15 -27z"/>
<path d="M879 452 c-19 -8 -38 -21 -44 -30 -15 -25 -24 -72 -14 -72 5 0 9 -7
9 -15 0 -8 12 -22 26 -31 22 -15 66 -17 380 -18 195 -1 354 3 354 7 0 5 4 6 8
3 13 -8 51 31 58 59 14 56 -52 118 -113 105 -18 -4 -34 -6 -36 -3 -6 5 -487 7
-492 1 -3 -3 -26 -2 -53 2 -32 4 -60 1 -83 -8z"/>
<path d="M989 223 c-24 -6 -53 -66 -46 -94 3 -14 16 -34 27 -47 20 -22 25 -22
269 -22 l248 0 23 25 c33 36 31 91 -5 122 -26 23 -30 23 -263 22 -130 -1 -244
-3 -253 -6z"/>
</g>
</svg>
